# xmcd
#
# Track frame offsets:
#	180
#	14786
#	27496
#	40576
#	52804
#	63948
#	77430
#	88487
#	103636
#	117062
#	129299
#	142821
#	155500
#	169166
#	182165
#	196945
#	209880
#	224084
#
# Disc length: 3134 seconds
#
# Revision: 0
# Processed by: cddbd v1.5.2PL0 Copyright (c) Steve Scherf et al.
# Submitted via: dBpowerAMP V4.0
#
DISCID=000c3c12
DTITLE=Various Artist - Gospel Vol. 2/Gospel Quartets/1921-1942
DYEAR=1994
DGENRE=Gospel
TTITLE0=Wonder Where the Gambling Man - Norfolk Jubilee Quartet
TTITLE1=I Hope I May Join the Band - Norfolk Jubilee Quartet
TTITLE2=I Want God's Bosom To Be Mine - Birmingham Jubilee Quartet
TTITLE3=Everytime I Feel The Spirit - Bryant Jubilee Quartet
TTITLE4=So High - St. Mark's Chanters
TTITLE5=Go Down Moses - Cotton Belt Quartet
TTITLE6=Climbing Jacob's Ladder - Bessemer Sunset Four
TTITLE7=Will The Circle Be Unbroken - Silver Leaf Quartet
TTITLE8=Light Of The World - Dunham Jubilee Singers
TTITLE9=I Dreamed Of The Judgment Morning - Dunham Jubilee Singers
TTITLE10=Praise Him Shining Angels - Second Zion Four
TTITLE11=Brother Jonah - Famous Blue Jay Singers of Birmingham
TTITLE12=Them Bones - Mitchell's Christian Singers
TTITLE13=I'm Praying Humble - Mitchell's Christian Singers
TTITLE14=Didn't It Rain - Norfolk Jubilee Quartet
TTITLE15=Lead Me To The Rock - Heavenly Gospel Singers
TTITLE16=Handwriting On The Wall - Heavenly Gospel Singers
TTITLE17=When The Gates Swing Open - Heavenly Gospel Singers
EXTD=
EXTT0=
EXTT1=
EXTT2=
EXTT3=
EXTT4=
EXTT5=
EXTT6=
EXTT7=
EXTT8=
EXTT9=
EXTT10=
EXTT11=
EXTT12=
EXTT13=
EXTT14=
EXTT15=
EXTT16=
EXTT17=
PLAYORDER=
